<?xml version="1.0" standalone="no"?>
<!DOCTYPE svg PUBLIC "-//W3C//DTD SVG 20010904//EN"
 "http://www.w3.org/TR/2001/REC-SVG-20010904/DTD/svg10.dtd">
<svg version="1.0" xmlns="http://www.w3.org/2000/svg"
 width="500.000000pt" height="500.000000pt" viewBox="0 0 500.000000 500.000000"
 preserveAspectRatio="xMidYMid meet">
<metadata>
Created by potrace 1.14, written by Peter Selinger 2001-2017
</metadata>
<g transform="translate(0.000000,500.000000) scale(0.100000,-0.100000)"
fill="#000000" stroke="none">
<path d="M0 2500 l0 -2500 2500 0 2500 0 0 2500 0 2500 -2500 0 -2500 0 0
-2500z m2905 1636 c270 -64 482 -182 658 -365 183 -190 301 -428 343 -689 22
-143 15 -931 -10 -1035 -109 -458 -413 -799 -837 -941 -157 -53 -258 -67 -453
-64 l-167 3 250 315 c236 296 256 318 330 368 145 96 240 224 293 392 22 73
23 84 23 475 0 357 -2 407 -18 465 -69 244 -248 423 -489 490 -67 18 -102 20
-465 20 l-393 0 0 -295 0 -295 -52 -26 c-136 -68 -208 -135 -390 -361 -76 -95
-141 -173 -143 -173 -3 0 -5 392 -5 871 l0 870 728 -4 c638 -3 736 -6 797 -21z
m-459 -1276 c76 -19 214 -80 233 -104 6 -7 -43 -76 -150 -211 l-159 -200 -47
3 c-33 2 -56 -3 -75 -15 -35 -23 -167 -189 -174 -220 -24 -93 77 -180 166
-143 28 12 151 154 179 207 15 30 14 84 -3 109 -14 19 -4 33 140 215 85 107
159 198 163 202 15 15 40 -5 95 -74 106 -133 150 -260 149 -434 0 -125 -26
-224 -85 -327 -18 -31 -171 -229 -339 -440 -240 -301 -320 -395 -370 -433
-252 -191 -585 -191 -835 -2 -270 205 -343 615 -160 892 79 119 635 802 686
844 70 56 197 117 280 135 96 21 213 19 306 -4z"/>
</g>
</svg>
